<mxfile host="app.diagrams.net" modified="2023-10-19T11:14:01.811Z" agent="Mozilla/5.0 (Windows NT 10.0; Win64; x64) AppleWebKit/537.36 (KHTML, like Gecko) Chrome/118.0.0.0 Safari/537.36" version="22.0.5" etag="tP4ihPGJDayRUC9iEVe8" type="github">
  <diagram name="第 1 页" id="k4dYDkqfigkPh4WxShxI">
    <mxGraphModel>
      <root>
        <mxCell id="0" />
        <mxCell id="1" parent="0" />
      </root>
    </mxGraphModel>
  </diagram>
</mxfile>
